<?xml version="1.0" encoding="utf-8"?>
<!-- Generator: Adobe Illustrator 26.0.2, SVG Export Plug-In . SVG Version: 6.00 Build 0)  -->
<svg version="1.1" id="Warstwa_1" xmlns="http://www.w3.org/2000/svg" xmlns:xlink="http://www.w3.org/1999/xlink" x="0px" y="0px"
	 viewBox="0 0 430 430" style="enable-background:new 0 0 430 430;" xml:space="preserve">
<style type="text/css">
	.st0{fill:url(#SVGID_1_);}
	.st1{fill:url(#SVGID_00000049915064154232880720000002890928536962781844_);}
	.st2{fill:url(#SVGID_00000026881715983194580710000015304153022065857664_);}
	.st3{fill:url(#SVGID_00000063619001675475504830000011118623006187589279_);}
	.st4{fill:url(#SVGID_00000038374778137917141930000010765870017068859567_);}
	.st5{fill:url(#SVGID_00000044168682999511225550000005449044892767391140_);}
	.st6{fill:url(#SVGID_00000041983519255756641160000014361311025266850983_);}
	.st7{fill:url(#SVGID_00000062193247481476789550000001007948438239124370_);}
	.st8{fill:url(#SVGID_00000175322718919279065690000008500149083415790517_);}
	.st9{fill:url(#SVGID_00000013182092461778846150000010297923148770727065_);}
	.st10{fill:url(#SVGID_00000092458432818608652000000016240529831452588984_);}
	.st11{fill:url(#SVGID_00000018229292961206752360000000224818179999095942_);}
	.st12{fill:url(#SVGID_00000024686731111816883050000018055188944723959705_);}
	.st13{fill:url(#SVGID_00000119078366653532819450000003693189168607957123_);}
	.st14{fill:url(#SVGID_00000026858896225095801660000000369827351559367335_);}
	.st15{fill:url(#SVGID_00000013180132979419722140000004978182842000905407_);}
	.st16{fill:url(#SVGID_00000170975122894208262970000005586311355984335547_);}
	.st17{fill:url(#SVGID_00000065035014857691402770000013772862823022092215_);}
	.st18{fill:url(#SVGID_00000121272624566133562030000013409701006346208899_);}
	.st19{fill:url(#SVGID_00000168080397837523814260000006583597225347791255_);}
	.st20{fill:url(#SVGID_00000032651093719014578110000017064783463187404444_);}
	.st21{fill:url(#SVGID_00000011733159823267503420000012754957928514482841_);}
	.st22{fill:url(#SVGID_00000122680086367317277980000001550199437412114845_);}
	.st23{fill:url(#SVGID_00000019663951252320108700000013980853430520753055_);}
	.st24{fill:none;}
	.st25{fill:url(#SVGID_00000109014884259957555900000004180703578361343909_);}
	.st26{fill:url(#SVGID_00000004540937412854086880000016178210103691617976_);}
	.st27{fill:url(#SVGID_00000041276526441754878110000014335882587644953013_);}
	.st28{fill:url(#SVGID_00000091011743311410562630000001717036940383741855_);}
	.st29{fill:url(#SVGID_00000040570294874321241250000005968458693764393150_);}
	.st30{fill:url(#SVGID_00000165938247473023159130000010393790160519192220_);}
	.st31{fill:url(#SVGID_00000152959779691952682180000012929287515855560369_);}
	.st32{fill:url(#SVGID_00000017515641465310978080000003946608742318503821_);}
	.st33{fill:url(#SVGID_00000093875252130654020590000007482069680151656116_);}
	.st34{fill:url(#SVGID_00000158734140202339572640000003947833661203886269_);}
	.st35{fill:url(#SVGID_00000124864380632800859600000004343949649668639160_);}
	.st36{fill:url(#SVGID_00000031892742380320534080000010815369091368305029_);}
	.st37{fill:url(#SVGID_00000139977481298310126150000003102273428124412584_);}
	.st38{fill:url(#SVGID_00000086667703769117547760000011139640570190911132_);}
	.st39{fill:url(#SVGID_00000081624980377946118340000006164583769874696884_);}
	.st40{fill:url(#SVGID_00000020395312529384898430000009670048476668545154_);}
	.st41{fill:url(#SVGID_00000114757535622421975330000006564307245576531102_);}
	.st42{fill:url(#SVGID_00000004539031764047182060000012000144749741114771_);}
</style>
<linearGradient id="SVGID_1_" gradientUnits="userSpaceOnUse" x1="82.1939" y1="124.394" x2="347.463" y2="389.6631">
	<stop  offset="0" style="stop-color:#cb5eee"/>
	<stop  offset="1" style="stop-color:#4be1ec"/>
</linearGradient>
<path class="st0" d="M284.49,285.78c-9.08-5.93-18.64-8.07-28.6-8.6c24.75-13.26,42.38-38.15,45.53-67.31h4.39
	c15.24,0,27.65-12.4,27.65-27.65c0-15.24-12.4-27.64-27.65-27.64h-0.03c0-0.08,0.01-0.16,0.01-0.24v-34.96
	c0-48.4-39.37-87.77-87.77-87.77h-6.75c-48.4,0-87.77,39.37-87.77,87.77v35.21c-15.03,0.25-27.18,12.55-27.18,27.63
	c0,15.24,12.4,27.65,27.65,27.65h4.59c3.15,29.18,20.79,54.06,45.55,67.31c-9.96,0.52-19.53,2.67-28.61,8.6
	c-36.17,23.62-57.76,63.47-57.76,106.61c0,3.31,2.69,6,6,6h242.49c3.31,0,6-2.69,6-6C342.25,349.26,320.66,309.4,284.49,285.78z
	 M321.47,182.22c0,8.63-7.02,15.65-15.65,15.65h-3.88v-25.1c0-2.08-0.1-4.14-0.24-6.19h4.12
	C314.45,166.58,321.47,173.6,321.47,182.22z M211.28,43.61h6.75c41.78,0,75.77,33.99,75.77,75.77v16.55
	c-4.23-9.05-10.05-17.4-17.32-24.67c-9.7-9.7-21.67-17.03-34.63-21.2c-0.23-0.07-0.48-0.14-0.71-0.18c-2.3-0.45-4.66,0.49-6.02,2.4
	c-36.35,50.79-88.51,60.54-99.6,62.07v-34.97C135.51,77.6,169.5,43.61,211.28,43.61z M128.07,172.77v25.1h-4.09
	c-8.63,0-15.65-7.02-15.65-15.65c0-8.63,7.02-15.64,15.65-15.64h4.31C128.14,168.63,128.07,170.7,128.07,172.77z M140.07,200.47
	v-27.71c0-2.34,0.11-4.68,0.32-6.99c16.96-2.77,65.38-14.67,101.8-62.87c9.61,3.73,18.46,9.5,25.81,16.84
	c14.15,14.15,21.94,32.98,21.94,53.02v27.71c0,41.33-33.63,74.96-74.96,74.96C173.67,275.43,140.07,241.8,140.07,200.47z
	 M99.91,386.39c1.89-36.74,21.09-70.27,52.16-90.56c12.47-8.15,27.13-7.17,44.1-6.04c6.08,0.41,12.36,0.83,18.83,0.83
	s12.75-0.42,18.83-0.83c16.97-1.13,31.63-2.11,44.1,6.04c31.07,20.3,50.27,53.82,52.16,90.56H99.91z"/>
</svg>
