<?xml version="1.0" encoding="utf-8"?>
<!-- Generator: Adobe Illustrator 26.3.1, SVG Export Plug-In . SVG Version: 6.00 Build 0)  -->
<svg version="1.1" id="Warstwa_3" xmlns="http://www.w3.org/2000/svg" xmlns:xlink="http://www.w3.org/1999/xlink" x="0px" y="0px"
	 viewBox="0 0 430 430" style="enable-background:new 0 0 430 430;" xml:space="preserve">
<style type="text/css">
	.st0{fill:url(#SVGID_1_);}
</style>
<linearGradient id="SVGID_1_" gradientUnits="userSpaceOnUse" x1="146.6686" y1="138.7261" x2="310.742" y2="302.7995">
	<stop  offset="0" style="stop-color:#cb5eee"/>
	<stop  offset="1" style="stop-color:#4be1ec"/>
</linearGradient>
<path class="st0" d="M320.2,50.9c-1.8-1.1-4-1.2-5.9-0.4l-150.6,71.7c-2.1,1-3.5,3.2-3.5,5.5v82.6c0,0.7,0.1,1.4,0.4,2.1V306
	c-5.7-4.7-12.9-7.5-20.8-7.5c-18,0-32.6,14.6-32.6,32.6v16.2c0,18,14.6,32.6,32.6,32.6c18,0,32.6-14.6,32.6-32.6V214.3l138.8-66.1
	V236c-5.7-4.7-12.9-7.5-20.8-7.5c-18,0-32.6,14.6-32.6,32.6v16.2c0,18,14.6,32.6,32.6,32.6c18,0,32.6-14.6,32.6-32.6V139.8
	c0.1-0.4,0.1-0.7,0.1-1.1V56.1C323,54,321.9,52.1,320.2,50.9z M310.8,134.9l-138.3,65.8v-69.1l138.3-65.8V134.9z"/>
</svg>
