<?xml version="1.0" encoding="utf-8"?>
<!-- Generator: Adobe Illustrator 26.3.1, SVG Export Plug-In . SVG Version: 6.00 Build 0)  -->
<svg version="1.1" id="Warstwa_3" xmlns="http://www.w3.org/2000/svg" xmlns:xlink="http://www.w3.org/1999/xlink" x="0px" y="0px"
	 viewBox="0 0 430 430" style="enable-background:new 0 0 430 430;" xml:space="preserve">
<style type="text/css">
	.st0{fill:url(#SVGID_1_);}
</style>
<linearGradient id="SVGID_1_" gradientUnits="userSpaceOnUse" x1="91.6124" y1="91.6122" x2="338.3876" y2="338.3875">
	<stop  offset="0" style="stop-color:#cb5eee"/>
	<stop  offset="1" style="stop-color:#4be1ec"/>
</linearGradient>
<path class="st0" d="M338.4,91.6c-33-33-76.8-51.1-123.4-51.1S124.6,58.7,91.6,91.6c-68,68-68,178.7,0,246.8
	c33,33,76.8,51.1,123.4,51.1s90.4-18.2,123.4-51.1C406.4,270.4,406.4,159.6,338.4,91.6z M329.9,329.9
	c-30.7,30.7-71.5,47.6-114.9,47.6s-84.2-16.9-114.9-47.6c-63.4-63.4-63.4-166.4,0-229.8c30.7-30.7,71.5-47.6,114.9-47.6
	s84.2,16.9,114.9,47.6C393.3,163.5,393.3,266.5,329.9,329.9z M279.5,150.5c2.3,2.3,2.3,6.1,0,8.5l-60.2,60.2
	c-1.2,1.2-2.7,1.8-4.2,1.8s-3.1-0.6-4.2-1.8c-1.6-1.6-2.1-3.8-1.5-5.8c-0.2-0.5-0.2-1.1-0.2-1.7V96c0-3.3,2.7-6,6-6s6,2.7,6,6v104.5
	l50-50C273.3,148.2,277.1,148.2,279.5,150.5z"/>
</svg>
